# Blender v2.78 (sub 0) OBJ File: 'Crate_3dexport.blend'
# www.blender.org
mtllib Crate_3dexport.mtl
o Cube.001_Cube.003
v -1.558792 0.020853 0.746825
v -1.556414 0.020853 -1.253173
v -1.556414 2.020853 -1.253173
v -1.558792 2.020853 0.746825
v 0.443584 2.020853 -1.250796
v 0.441206 2.020853 0.749202
v 0.443584 0.020853 -1.250796
v 0.441206 0.020853 0.749202
v -1.556414 0.020853 -1.253173
v -1.556414 0.020853 -1.253173
v -1.556414 2.020853 -1.253173
v -1.556414 2.020853 -1.253173
v -1.558792 2.020853 0.746825
v -1.558792 2.020853 0.746825
v -1.558792 0.020853 0.746825
v -1.558792 0.020853 0.746825
v 0.443584 2.020853 -1.250796
v 0.443584 2.020853 -1.250796
v 0.441206 2.020853 0.749202
v 0.441206 2.020853 0.749202
v 0.443584 0.020853 -1.250796
v 0.443584 0.020853 -1.250796
v 0.441206 0.020853 0.749202
v 0.441206 0.020853 0.749202
vt 0.0054 0.0054
vt 0.9946 0.0054
vt 0.9946 0.9946
vt 0.0054 0.9946
vt 0.9947 0.9947
vt 0.0053 0.9947
vt 0.0053 0.0053
vt 0.9947 0.0053
vt 0.0054 0.0054
vt 0.9946 0.0054
vt 0.9946 0.9946
vt 0.0054 0.9946
vt 0.9946 0.0054
vt 0.9946 0.9946
vt 0.0054 0.9946
vt 0.0054 0.0054
vt 0.0054 0.0054
vt 0.9946 0.0054
vt 0.9946 0.9946
vt 0.0054 0.9946
vt 0.9947 0.9947
vt 0.9947 0.0053
vt 0.0053 0.0053
vt 0.0053 0.9947
vn -1.0000 0.0000 -0.0012
vn 0.0000 1.0000 0.0000
vn 0.0012 -0.0000 -1.0000
vn -0.0012 -0.0000 1.0000
vn 1.0000 -0.0000 0.0012
vn -0.0000 -1.0000 0.0000
usemtl COMBINE
s off
f 15/1/1 13/2/1 11/3/1 9/4/1
f 17/5/2 12/6/2 14/7/2 19/8/2
f 10/9/3 3/10/3 18/11/3 22/12/3
f 24/13/4 20/14/4 4/15/4 16/16/4
f 23/17/5 21/18/5 5/19/5 6/20/5
f 7/21/6 8/22/6 1/23/6 2/24/6
