# Blender 3.6.14
# www.blender.org
mtllib WoodenPlank.mtl
o Wooden_Plank.001
v 0.416784 0.125370 -2.937596
v 0.426573 -0.126206 -2.948204
v 0.443259 0.131580 2.927796
v 0.443259 -0.131575 2.958076
v -0.421670 0.125883 -2.937574
v -0.421670 -0.125883 -2.948190
v -0.433592 0.132011 2.927746
v -0.452869 -0.130445 2.957945
v -0.443221 -0.132434 -0.980963
v -0.430868 -0.126446 0.980963
v 0.438068 0.132753 -0.980963
v 0.421670 0.125995 0.980963
v -0.412530 0.124875 0.980963
v -0.443221 0.132434 -0.980963
v 0.421670 -0.125995 0.980963
v 0.448357 -0.131915 -0.980963
vn -0.0004 1.0000 -0.0033
vn -0.0000 0.1143 0.9934
vn -0.9999 0.0002 -0.0110
vn -0.0004 -1.0000 -0.0024
vn 0.9999 -0.0006 -0.0110
vn -0.0000 0.0421 -0.9991
vn 0.9992 0.0391 -0.0110
vn 0.9997 0.0199 0.0110
vn 0.0001 -1.0000 -0.0031
vn 0.0006 -1.0000 0.0030
vn -0.9973 0.0724 -0.0110
vn -0.9993 0.0355 0.0110
vn 0.0001 1.0000 -0.0036
vn -0.0008 1.0000 0.0037
vt 0.625000 0.666667
vt 0.875000 0.666667
vt 0.875000 0.750000
vt 0.625000 0.750000
vt 0.375000 0.750000
vt 0.625000 1.000000
vt 0.375000 1.000000
vt 0.375000 0.166667
vt 0.625000 0.166667
vt 0.625000 0.250000
vt 0.375000 0.250000
vt 0.125000 0.666667
vt 0.375000 0.666667
vt 0.125000 0.750000
vt 0.625000 0.500000
vt 0.375000 0.500000
vt 0.625000 0.583333
vt 0.375000 0.583333
vt 0.125000 0.500000
vt 0.125000 0.583333
vt 0.375000 0.000000
vt 0.625000 0.000000
vt 0.625000 0.083333
vt 0.375000 0.083333
vt 0.875000 0.500000
vt 0.875000 0.583333
s 0
usemtl Material
f 12/1/1 13/2/1 7/3/1 3/4/1
f 4/5/2 3/4/2 7/6/2 8/7/2
f 9/8/3 14/9/3 5/10/3 6/11/3
f 10/12/4 15/13/4 4/5/4 8/14/4
f 15/13/5 12/1/5 3/4/5 4/5/5
f 6/11/6 5/10/6 1/15/6 2/16/6
f 2/16/7 1/15/7 11/17/7 16/18/7
f 16/18/8 11/17/8 12/1/8 15/13/8
f 6/19/9 2/16/9 16/18/9 9/20/9
f 9/20/10 16/18/10 15/13/10 10/12/10
f 8/21/11 7/22/11 13/23/11 10/24/11
f 10/24/12 13/23/12 14/9/12 9/8/12
f 1/15/13 5/25/13 14/26/13 11/17/13
f 11/17/14 14/26/14 13/2/14 12/1/14
